PathFileType	4	(X/Y/Z)	Kaydara																																																																																																																																																																																																																																																	
DataRate	CameraRate	NumFrames	NumMarkers	Units	OrigDataRate	OrigDataStartFrame	OrigNumFrames																																																																																																																																																																																																																																													
30	30	8	41	mm	30	167	273																																																																																																																																																																																																																																													
Frame#	Time	SALE_LFHD			SALE_RFHD			SALE_LBHD			SALE_RBHD			SALE_LFTShould			SALE_RFTShould			SALE_LRRShould			SALE_RRRShould			SALE_T10			SALE_STRN			SALE_TRUN			SALE_LSHO			SALE_LUPA			SALE_LELB			SALE_LFRM			SALE_LWRA			SALE_LWRB			SALE_LFIN			SALE_RSHO			SALE_RUPA			SALE_RELB			SALE_RFRM			SALE_RWRB			SALE_RFIN			SALE_LFWT			SALE_RFWT			SALE_LBWT			SALE_RBWT			SALE_LTHI			SALE_LKNE			SALE_RWRA			SALE_LSHN			SALE_LANK			SALE_LHEE			SALE_LTOE			SALE_RTHI			SALE_RKNE			SALE_RSHN			SALE_RANK			SALE_RHEE			SALE_RTOE																																																																																																																										
		X1	Y1	Z1	X2	Y2	Z2	X3	Y3	Z3	X4	Y4	Z4	X5	Y5	Z5	X6	Y6	Z6	X7	Y7	Z7	X8	Y8	Z8	X9	Y9	Z9	X10	Y10	Z10	X11	Y11	Z11	X12	Y12	Z12	X13	Y13	Z13	X14	Y14	Z14	X15	Y15	Z15	X16	Y16	Z16	X17	Y17	Z17	X18	Y18	Z18	X19	Y19	Z19	X20	Y20	Z20	X21	Y21	Z21	X22	Y22	Z22	X23	Y23	Z23	X24	Y24	Z24	X25	Y25	Z25	X26	Y26	Z26	X27	Y27	Z27	X28	Y28	Z28	X29	Y29	Z29	X30	Y30	Z30	X31	Y31	Z31	X32	Y32	Z32	X33	Y33	Z33	X34	Y34	Z34	X35	Y35	Z35	X36	Y36	Z36	X37	Y37	Z37	X38	Y38	Z38	X39	Y39	Z39	X40	Y40	Z40	X41	Y41	Z41																																																																																																																							Y81	Z81
																																																																																																																																																																																																																																																				
137	5.533	269.10025	1617.48856	-732.45323	139.17311	1621.60477	-718.03032	249.90856	1607.44522	-862.67426	125.82304	1611.00967	-842.94685	262.46212	1354.86572	-771.06323	123.02172	1353.75259	-784.16275	268.37545	1422.72293	-877.20619	116.83242	1428.04214	-884.55284	198.73505	1279.58481	-966.06476	184.54773	1278.42064	-739.06998	178.90186	1188.60535	-707.61536	383.63922	1386.67755	-821.65298	430.4113	1171.66763	-809.09515	422.05235	1058.93692	-814.29153	445.28812	961.70937	-759.51851	373.6483	838.39577	-676.25511	444.65477	825.37048	-701.96693	434.43798	794.63547	-646.99364	20.84273	1390.79605	-853.41949	-11.8704	1170.4599	-938.65616	-46.99096	1066.58638	-904.05693	-42.76301	952.53517	-918.15712	-61.7441	813.0806	-878.41072	-73.60751	773.71956	-825.62988	312.43868	950.51102	-774.56955	36.5696	952.36824	-799.19128	268.59184	1010.30327	-946.70357	90.16218	1008.60451	-968.1855	311.10853	665.28961	-963.80165	290.03796	487.58156	-907.38556	-17.88301	822.41707	-819.39468	277.13346	290.35295	-932.69211	264.69376	113.87347	-1001.79062	226.17363	69.80218	-1071.10603	233.01378	71.08512	-874.85298	29.43479	681.87096	-867.09305	51.14609	575.01625	-697.5016	93.10942	364.75327	-690.50056	39.4325	120.46852	-768.44559	30.14771	64.83322	-651.26274	92.75384	59.56562	-833.72177																																																																																																																							0	-0.00191
138	5.567	265.08541	1613.50281	-703.63686	135.29312	1616.0321	-689.30275	246.08294	1604.46747	-834.03008	121.95704	1606.41724	-814.34975	260.78947	1350.47745	-744.94797	121.1862	1349.34967	-756.92986	265.82567	1419.12872	-850.68779	114.16142	1424.37881	-856.81351	195.74944	1276.58485	-939.92149	183.2885	1273.70308	-712.8952	177.97438	1183.69873	-681.9265	381.48762	1382.82654	-795.99693	428.82919	1168.19801	-783.10287	421.06041	1055.14381	-786.66679	443.75217	959.27483	-728.11249	371.24695	840.48477	-639.05376	442.04639	825.5175	-664.63951	432.22485	797.95059	-608.16101	18.40498	1386.81274	-825.20119	-12.79534	1166.6275	-911.75537	-45.70952	1061.96854	-877.43919	-40.2143	948.34991	-893.18588	-57.35779	807.93518	-854.35654	-67.46426	767.55295	-802.0726	311.30316	946.49002	-751.00815	34.65596	947.96814	-772.98401	265.99873	1007.53067	-922.26753	87.40611	1005.50262	-942.28836	309.39054	666.07712	-947.16156	289.66137	486.74992	-895.9343	-12.91312	817.52922	-795.72716	277.0924	290.22161	-926.82449	264.7571	115.38639	-1000.3286	226.24683	72.48572	-1070.54573	233.69663	70.91363	-874.52774	27.86099	678.06091	-843.47626	47.8653	571.34045	-674.82979	90.06261	368.53279	-646.40556	32.17147	115.60285	-679.63264	29.62565	66.35097	-554.17515	82.03526	50.33198	-739.04907																																																																																																																							0	-0.00191
139	5.6	260.73318	1608.79318	-675.00275	130.8858	1609.97604	-660.95856	242.11617	1600.56671	-805.51926	117.87458	1601.16852	-786.03745	258.09052	1345.45746	-718.64197	118.80521	1344.23187	-729.26781	262.3122	1414.71573	-824.17397	110.57343	1419.81659	-828.75931	191.54507	1272.53281	-913.31528	181.35906	1268.60886	-686.10977	176.59641	1178.46642	-655.47356	378.5833	1378.45795	-770.73486	426.34182	1164.0831	-758.09227	419.03603	1050.91171	-760.66566	441.28456	956.0778	-698.87291	368.25996	841.53511	-604.82655	438.73203	824.74869	-630.3664	429.32522	799.93698	-572.714	15.22126	1381.79291	-796.33621	-14.74575	1161.35483	-882.84897	-45.92659	1056.7157	-848.70552	-40.58245	943.65883	-866.04813	-57.39295	802.17819	-829.65225	-66.07699	759.01039	-779.15833	310.27073	943.06053	-726.26038	32.90652	942.27211	-744.86221	262.71194	1004.2038	-896.85333	84.3659	1000.58777	-914.11446	307.45956	667.64511	-929.17908	290.31979	486.63219	-882.53983	-13.20007	811.2941	-770.60867	277.82909	290.50486	-919.79141	265.38671	117.77182	-998.32191	227.04174	76.67739	-1069.6627	234.66782	70.67178	-873.9772	25.66471	671.58546	-822.25815	42.18171	562.55371	-655.1001	87.60463	370.98179	-607.74494	27.15377	117.99421	-597.22313	34.18444	77.34293	-464.70097	72.42893	45.31034	-651.34827																																																																																																																							0	-0.00191
140	5.633	256.00382	1603.46481	-646.62498	126.14182	1603.54645	-632.89467	237.82955	1595.97794	-777.2303	113.52591	1595.49179	-758.09601	255.30294	1340.34851	-692.63611	115.72703	1338.68134	-701.52901	257.68585	1409.72702	-798.05	105.83002	1414.35562	-800.76874	186.10271	1267.41211	-886.47781	179.07566	1263.17993	-659.00864	175.01198	1173.00835	-628.36205	374.82235	1373.72955	-745.94597	422.98439	1159.39034	-733.66158	415.83809	1046.20087	-735.77179	437.86709	952.13234	-671.67938	364.63787	840.85014	-573.89324	434.81941	822.76917	-599.6209	425.87292	799.97421	-541.09554	11.03758	1375.94162	-767.12288	-18.6525	1154.62692	-852.27943	-48.95587	1050.14259	-817.82478	-43.17218	937.78503	-837.58667	-59.72511	795.87738	-805.8902	-70.14479	750.6955	-756.5007	309.05413	939.62746	-699.77615	31.7077	935.92888	-714.25346	258.475	1000.01915	-869.94034	79.80089	994.48967	-884.40025	305.64701	669.04083	-908.28621	291.16621	486.46812	-866.62743	-18.22055	803.29514	-744.37515	278.61969	290.93418	-911.36185	266.57892	120.91151	-995.6105	228.59289	81.86186	-1068.27248	235.53249	70.31343	-873.23166	22.96743	664.34036	-798.51173	36.35206	551.90891	-633.13492	82.48935	371.79493	-575.35378	27.59146	123.01497	-532.11189	41.65899	98.40178	-395.04639	71.57033	42.26865	-578.75389																																																																																																																							0	-0.00191
141	5.667	250.85733	1597.91748	-618.70468	120.85429	1597.53876	-605.0882	232.95757	1591.27426	-749.33395	108.63262	1590.27191	-730.39986	251.35181	1335.43839	-666.77223	111.81464	1332.83768	-673.74321	251.94088	1404.59183	-772.48444	99.97762	1408.30643	-772.9245	179.84718	1261.54579	-859.24942	176.21889	1257.89627	-631.80771	173.23065	1167.81334	-600.7901	370.2137	1369.13544	-721.64139	418.57021	1154.59183	-709.78645	411.39854	1041.32996	-711.39374	433.55	947.73972	-646.37421	360.10986	838.58467	-545.54817	430.43537	819.33556	-572.57835	421.97662	797.73407	-513.57601	5.84471	1369.36508	-737.62146	-25.04118	1147.31865	-820.53955	-53.9325	1042.70927	-785.92834	-47.48871	931.29852	-807.50496	-63.7067	789.46915	-778.90549	-77.08216	743.35548	-731.43349	306.82858	935.57617	-671.10626	29.34959	930.7373	-681.96396	253.60752	994.76067	-841.11565	74.5887	988.07014	-853.31696	303.93312	669.72343	-884.03198	291.06884	485.87082	-847.81128	-25.72073	795.32715	-715.43434	279.23021	291.50499	-900.45189	268.00238	124.80474	-991.96739	231.10264	88.37745	-1066.31607	236.37497	69.87711	-872.1212	19.08599	658.24959	-767.38968	32.55133	543.33237	-604.31164	78.34945	367.96047	-543.96488	29.45627	118.48128	-494.35261	39.28248	100.80255	-356.62865	79.37331	37.06383	-535.51659																																																																																																																							0	-0.00191
142	5.7	245.17719	1592.6564	-591.29589	115.27685	1591.93588	-577.47383	227.15591	1587.00958	-721.99509	102.8634	1585.64423	-702.87445	247.00907	1331.08276	-640.86777	107.2808	1327.48444	-645.86319	245.60953	1399.59015	-747.18391	93.46239	1402.36679	-745.40642	173.14404	1255.1741	-831.36368	172.77349	1253.46764	-604.30744	170.70999	1163.66348	-572.30095	364.74403	1365.0563	-698.21075	413.04695	1150.25894	-686.2735	405.70396	1037.02721	-687.67593	428.28312	943.28804	-623.05817	355.95337	833.62411	-522.93781	425.61665	814.68605	-549.47224	417.69764	793.14468	-490.48073	0.20654	1362.93106	-708.4053	-31.96733	1140.03159	-788.68118	-59.49648	1035.70068	-753.90388	-53.39091	924.71672	-775.72311	-70.71734	783.35388	-747.38602	-84.06238	737.30682	-700.39162	303.00537	931.0585	-639.52503	24.53019	926.0994	-648.08937	248.02721	988.64525	-809.87686	68.67564	982.08824	-820.10269	300.39042	669.86435	-856.26503	289.28116	484.96559	-825.78697	-31.26529	787.92473	-684.5623	279.11358	292.2757	-887.41524	270.28498	129.86061	-986.71799	234.86347	96.57574	-1063.20641	237.16984	69.32568	-870.46387	14.80995	653.24661	-728.85162	33.36753	539.78199	-566.61846	79.87057	357.99416	-515.33123	29.05755	106.03611	-480.48527	37.4696	79.44862	-345.44323	75.10851	33.3588	-526.74976																																																																																																																							0	-0.00191
143	5.733	238.95927	1590.79529	-563.98102	108.73464	1589.27002	-549.7435	220.44209	1585.45975	-694.59747	96.16759	1583.48633	-675.20111	242.13194	1328.97339	-614.42791	102.00287	1324.54468	-617.62051	239.28982	1396.96823	-721.70128	86.5847	1398.63419	-717.77931	166.38639	1250.57579	-802.08038	168.71235	1251.60347	-575.82386	167.45895	1162.37701	-542.36561	359.44035	1362.285	-674.11041	406.66988	1146.64871	-662.97539	398.54397	1033.58978	-664.43153	422.02801	939.10484	-601.93802	350.91076	827.72476	-502.8067	420.16937	809.28864	-530.80391	413.1303	786.63406	-472.09976	-5.85329	1358.25134	-679.5488	-37.97226	1134.02214	-757.38472	-65.73443	1030.19989	-720.38841	-61.29164	919.5401	-741.92261	-79.22772	778.54973	-712.7507	-89.1435	732.80968	-664.41002	299.90448	927.8112	-605.99583	21.73266	924.89014	-611.36761	243.23816	984.48563	-776.27342	61.99648	981.17409	-784.15558	294.04449	671.06621	-826.14113	285.41693	485.1627	-800.65338	-33.95048	782.02843	-653.64105	277.79146	294.95075	-871.78711	272.35956	137.7097	-979.37355	238.67252	108.40657	-1057.89612	237.91496	68.59917	-867.70088	13.68305	651.63651	-694.3502	30.71103	535.10082	-541.5123	80.19446	355.97935	-491.71268	31.15659	102.83777	-463.78014	36.54686	59.52156	-326.52222	81.67834	43.79843	-514.96185																																																																																																																							0	-0.00191
144	5.767	231.37568	1592.55844	-535.85995	101.46715	1590.10208	-521.70166	213.09698	1588.07037	-666.63918	88.88326	1585.09705	-647.20634	236.7659	1331.08353	-586.74995	96.4798	1325.61356	-588.81664	233.00779	1398.04825	-694.93423	80.09877	1398.44223	-689.98558	160.78192	1249.72267	-772.33505	164.27399	1254.09035	-545.98198	163.95796	1165.58754	-510.71026	353.95844	1363.42773	-648.01376	399.19365	1146.70235	-639.52995	390.08404	1033.83789	-641.28105	414.88918	937.56622	-583.61771	345.19821	822.49741	-486.96175	413.80909	805.05661	-517.51289	408.2922	780.25383	-459.64867	-11.78681	1357.47742	-650.89912	-43.91384	1131.93527	-725.24651	-71.96362	1028.75641	-685.67963	-68.41074	918.12096	-706.5284	-86.67765	777.52258	-676.16478	-92.8095	732.21077	-626.58451	296.11931	927.06009	-570.1136	19.70041	934.12918	-573.74821	240.3157	984.897	-740.62195	59.07043	989.66324	-748.17169	285.81577	672.96585	-793.32344	280.44491	486.46469	-771.19347	-36.58569	780.88913	-620.26649	276.08816	299.13399	-852.43713	275.43802	148.5338	-968.94127	243.31993	123.83075	-1049.18678	238.67414	67.59213	-863.44551	0.79864	664.42368	-666.5329	28.61775	540.29877	-512.35275	82.55445	356.79131	-476.83926	34.51824	104.37676	-449.72595	43.93547	59.12694	-324.70818	81.25035	44.79291	-512.09839																																																																																																																							0	-0.00191
